<svg id="Ebene_1" data-name="Ebene 1" xmlns="http://www.w3.org/2000/svg" viewBox="0 0 500 104.69"><defs><style>.cls-1{fill:#1d1d1b;}.cls-2{fill:#fff;}</style></defs><rect class="cls-1" x="1.51" y="25.17" width="498.47" height="54.61"/><path class="cls-2" d="M392.57,80.51h10.34V24.86H390.06V57.55L364.12,24.86h-10V80.51h12.85V48.69Zm-61.84,0h10.35V24.86H328.22V57.55L302.28,24.86h-10V80.51H305.1V48.69ZM264.66,59.19H251.57l6.67-20.69ZM245.31,80.51l4.23-12.46h17.32l4.31,12.46H284.8L263.49,24.86H253.06L231.67,80.51Zm-21.16,0V24.86H210.27l-14.5,29.08L181.35,24.86H167.4V80.51h12.86V47.2l12.07,24.22h6.89L211.29,47.2V80.51Zm-90.52,0v-22h20.53V48.14H133.63v-12h24.92V24.86H120.77V80.51ZM71.71,46.61a17.3,17.3,0,0,1,2.55-5.37,13.38,13.38,0,0,1,4.19-3.8A11.6,11.6,0,0,1,84.33,36a11.77,11.77,0,0,1,5.72,1.37,13.13,13.13,0,0,1,4.23,3.69,16.92,16.92,0,0,1,2.63,5.33,21.68,21.68,0,0,1,.9,6.23A23.61,23.61,0,0,1,97,58.76a17.21,17.21,0,0,1-2.51,5.41,13.62,13.62,0,0,1-4.19,3.88,11.37,11.37,0,0,1-5.88,1.49,11.85,11.85,0,0,1-5.84-1.41,12.66,12.66,0,0,1-4.23-3.77A17.67,17.67,0,0,1,71.75,59a21.75,21.75,0,0,1-.9-6.24,22.49,22.49,0,0,1,.86-6.15M95,78.63a27.28,27.28,0,0,0,8.42-6.23,29.35,29.35,0,0,0,7.53-19.56A29.74,29.74,0,0,0,109,42.5a29.06,29.06,0,0,0-5.37-9.09A27,27,0,0,0,95.3,27a23.82,23.82,0,0,0-10.81-2.43,24.74,24.74,0,0,0-10.7,2.31,27.13,27.13,0,0,0-8.47,6.19,29.18,29.18,0,0,0-7.56,19.56,29.57,29.57,0,0,0,1.92,10.5,28.94,28.94,0,0,0,5.41,9,27.13,27.13,0,0,0,8.34,6.39A23.86,23.86,0,0,0,84.25,81,24.37,24.37,0,0,0,95,78.63M35,24.86V46.42H12.85V24.86H0V80.51H12.85V57.7H35V80.51H47.89V24.86Z"/><path class="cls-1" d="M484.06,3h7.37a4,4,0,0,1,1.75.41,4.49,4.49,0,0,1,1.44,1.13,5.94,5.94,0,0,1,1,1.65,5.34,5.34,0,0,1,.37,2,6.21,6.21,0,0,1-.32,2,5.37,5.37,0,0,1-.88,1.68,4.25,4.25,0,0,1-1.36,1.14,3.63,3.63,0,0,1-1.78.43h-7.58Zm0,22.22v-9h6.63l5.71,9H500l-6.07-9.59a6.37,6.37,0,0,0,2.17-1,7.05,7.05,0,0,0,1.66-1.7,7.73,7.73,0,0,0,1.06-2.2,8.49,8.49,0,0,0,.37-2.52,7.77,7.77,0,0,0-.57-2.91,8.76,8.76,0,0,0-1.57-2.58A7.7,7.7,0,0,0,494.66.83a6.79,6.79,0,0,0-3.05-.69H480.88v25ZM460,21.67a6.53,6.53,0,0,1-2.29-2.17,9.1,9.1,0,0,1-1.24-3.08,17.23,17.23,0,0,1-.37-3.62V.14h-3.17V12.8a20.24,20.24,0,0,0,.54,4.68,11.67,11.67,0,0,0,1.8,4,9.31,9.31,0,0,0,3.3,2.8,10.83,10.83,0,0,0,5,1.06,11,11,0,0,0,4.92-1,8.93,8.93,0,0,0,3.3-2.73,11.49,11.49,0,0,0,1.85-4,19.29,19.29,0,0,0,.58-4.82V.14h-3.17V12.8a18.34,18.34,0,0,1-.35,3.55,9.06,9.06,0,0,1-1.22,3.1,6.68,6.68,0,0,1-2.31,2.2,8.16,8.16,0,0,1-7.21,0M449.43.14H429V3h8.64V25.18h3.18V3h8.64ZM411,25.18V17.53L415.36,13l9.1,12.17h3.45l-10.61-14,10.05-11h-3.42L411,14V.18h-3.17v25Zm-21.94-2.82V13.72h11.75V11.07H389.08V3h13.51V.14H385.91v25h17V22.36ZM381.85.14H361.4V3H370V25.18h3.17V3h8.64Zm-24.6,0h-3.18v25h3.18ZM345.1.14V11H331.32V.14h-3.18v25h3.18V13.79H345.1V25.18h3.18V.14ZM302.91,17.19a13.28,13.28,0,0,0,2.43,4.13,12.67,12.67,0,0,0,3.72,2.94,10,10,0,0,0,4.73,1.13,12.33,12.33,0,0,0,3-.38,12.52,12.52,0,0,0,2.87-1.13,10.71,10.71,0,0,0,2.44-1.82,8,8,0,0,0,1.67-2.49l-2.64-1.44a6.94,6.94,0,0,1-1.36,2A8.87,8.87,0,0,1,318,21.5a7.52,7.52,0,0,1-2,.79,9.08,9.08,0,0,1-2,.25,7.5,7.5,0,0,1-3.46-.81,9,9,0,0,1-2.75-2.19,10.4,10.4,0,0,1-1.82-3.16,10.91,10.91,0,0,1-.65-3.75,11.48,11.48,0,0,1,.55-3.51A9.61,9.61,0,0,1,307.44,6a8.58,8.58,0,0,1,2.7-2.26,7.69,7.69,0,0,1,3.68-.86,9.29,9.29,0,0,1,1.94.21,7.65,7.65,0,0,1,1.92.7,6.93,6.93,0,0,1,1.73,1.31,7.31,7.31,0,0,1,1.36,2l2.5-1.62a9.33,9.33,0,0,0-3.56-3.95A10.54,10.54,0,0,0,314,0a11.24,11.24,0,0,0-5,1.09A11.82,11.82,0,0,0,305.16,4a12.61,12.61,0,0,0-2.32,4,13.09,13.09,0,0,0,.07,9.2M283,3h7.37a3.91,3.91,0,0,1,1.75.41,4.63,4.63,0,0,1,1.45,1.13,5.68,5.68,0,0,1,1,1.65,5.34,5.34,0,0,1,.37,2,6.2,6.2,0,0,1-.31,2,5.61,5.61,0,0,1-.89,1.68,4.11,4.11,0,0,1-1.35,1.14,3.66,3.66,0,0,1-1.78.43H283Zm0,22.22v-9h6.63l5.72,9h3.59l-6.06-9.59a6.46,6.46,0,0,0,2.17-1,7,7,0,0,0,1.65-1.7,7.48,7.48,0,0,0,1.06-2.2,8.49,8.49,0,0,0,.37-2.52,8,8,0,0,0-.56-2.91A9,9,0,0,0,296,2.66a7.74,7.74,0,0,0-2.4-1.83,6.76,6.76,0,0,0-3.05-.69H279.79v25Zm-14-9.8h-9.17l4.66-11.57Zm-12.73,9.8,2.93-7.33h10.51l3,7.33H276L265.75.14h-2.61l-10.3,25Z"/><path class="cls-1" d="M107.56,79.65V90.47H93.77V79.65H90.6v25h3.17V93.3h13.79v11.39h3.18v-25ZM70.81,82.47H77.9a4.07,4.07,0,0,1,1.75.39A4.37,4.37,0,0,1,81.1,84a5.36,5.36,0,0,1,1,1.66,5.48,5.48,0,0,1,.37,2,6.31,6.31,0,0,1-.31,2,5.61,5.61,0,0,1-.89,1.68,4.06,4.06,0,0,1-1.35,1.13,3.88,3.88,0,0,1-1.78.4H70.81Zm0,22.22v-9h7.48a6.7,6.7,0,0,0,3-.67,7,7,0,0,0,2.32-1.8,8.16,8.16,0,0,0,1.5-2.57,8.47,8.47,0,0,0,.53-3,8,8,0,0,0-.56-2.91,8.79,8.79,0,0,0-1.57-2.57,7.62,7.62,0,0,0-2.4-1.84,6.92,6.92,0,0,0-3-.68H67.64v25Zm-5.78,0v-2.82h-14V25.22H47.89v79.47Zm-26.8-9.81H29.06l4.65-11.57ZM25.5,104.69l2.92-7.34H38.93l3,7.34h3.39L35,79.65H32.41l-10.3,25ZM4.37,82.47h7.37a4,4,0,0,1,1.75.4A4.49,4.49,0,0,1,14.93,84a6,6,0,0,1,1,1.66,5.29,5.29,0,0,1,.37,2,6.32,6.32,0,0,1-.32,2,5.43,5.43,0,0,1-.88,1.67,4.18,4.18,0,0,1-1.36,1.15,3.74,3.74,0,0,1-1.78.42H4.37Zm0,22.22v-9H11l5.71,9h3.6l-6.06-9.6a6.41,6.41,0,0,0,2.16-1,7,7,0,0,0,1.66-1.69,7.79,7.79,0,0,0,1.06-2.21,8.49,8.49,0,0,0,.37-2.52,8,8,0,0,0-.56-2.91,8.79,8.79,0,0,0-1.57-2.57A7.62,7.62,0,0,0,15,80.33a6.92,6.92,0,0,0-3.05-.68H1.2v25Z"/></svg>