<?xml version="1.0" encoding="UTF-8" standalone="no"?>
<!-- Created with Inkscape (http://www.inkscape.org/) -->

<svg
   width="500"
   height="600"
   viewBox="0 0 132.29166 158.75"
   version="1.1"
   id="svg4353"
   sodipodi:docname="compass.svg"
   inkscape:version="1.2.2 (b0a8486541, 2022-12-01)"
   inkscape:export-filename="compass.webp"
   inkscape:export-xdpi="93.1949"
   inkscape:export-ydpi="93.1949"
   xmlns:inkscape="http://www.inkscape.org/namespaces/inkscape"
   xmlns:sodipodi="http://sodipodi.sourceforge.net/DTD/sodipodi-0.dtd"
   xmlns="http://www.w3.org/2000/svg"
   xmlns:svg="http://www.w3.org/2000/svg">
  <sodipodi:namedview
     id="namedview4355"
     pagecolor="#ffffff"
     bordercolor="#666666"
     borderopacity="1.0"
     inkscape:showpageshadow="2"
     inkscape:pageopacity="0.0"
     inkscape:pagecheckerboard="0"
     inkscape:deskcolor="#d1d1d1"
     inkscape:document-units="mm"
     showgrid="false"
     showguides="true"
     inkscape:zoom="1.5998424"
     inkscape:cx="151.88996"
     inkscape:cy="155.01527"
     inkscape:window-width="1920"
     inkscape:window-height="1028"
     inkscape:window-x="0"
     inkscape:window-y="0"
     inkscape:window-maximized="1"
     inkscape:current-layer="layer1">
    <sodipodi:guide
       position="66.145831,92.604164"
       orientation="-1,0"
       id="guide4474"
       inkscape:locked="false"
       inkscape:label=""
       inkscape:color="rgb(0,134,229)" />
    <sodipodi:guide
       position="66.145829,92.604167"
       orientation="0,-1"
       id="guide4476"
       inkscape:locked="false" />
    <sodipodi:guide
       position="52.916665,153.45833"
       orientation="0,1"
       id="guide6862"
       inkscape:locked="false"
       inkscape:label=""
       inkscape:color="rgb(0,134,229)" />
    <sodipodi:guide
       position="5.2916665,100.38824"
       orientation="-1,0"
       id="guide7590"
       inkscape:locked="false"
       inkscape:label=""
       inkscape:color="rgb(0,134,229)" />
    <sodipodi:guide
       position="127,100.70286"
       orientation="-1,0"
       id="guide9770"
       inkscape:locked="false"
       inkscape:label=""
       inkscape:color="rgb(0,134,229)" />
    <sodipodi:guide
       position="16.202859,31.749999"
       orientation="0,1"
       id="guide12780"
       inkscape:locked="false"
       inkscape:label=""
       inkscape:color="rgb(0,134,229)" />
    <sodipodi:guide
       position="66.145831,92.604167"
       orientation="0.70710678,0.70710678"
       id="guide13535"
       inkscape:locked="false"
       inkscape:label=""
       inkscape:color="rgb(0,134,229)" />
    <sodipodi:guide
       position="66.145831,92.604167"
       orientation="0.70710678,-0.70710678"
       id="guide15014"
       inkscape:locked="false"
       inkscape:label=""
       inkscape:color="rgb(0,134,229)" />
    <sodipodi:guide
       position="98.032364,60.717635"
       orientation="0,1"
       id="guide1024"
       inkscape:locked="false"
       inkscape:label=""
       inkscape:color="rgb(0,134,229)" />
    <sodipodi:guide
       position="110.63849,124.23983"
       orientation="0,1"
       id="guide1048"
       inkscape:locked="false"
       inkscape:label=""
       inkscape:color="rgb(0,134,229)" />
  </sodipodi:namedview>
  <defs
     id="defs4350" />
  <g
     inkscape:label="Layer 1"
     inkscape:groupmode="layer"
     id="layer1">
    <path
       id="path4534"
       style="stroke-width:0.264999"
       d="m 71.263745,66.145828 a 5.117909,5.117909 0 0 1 -5.117909,5.117909 5.117909,5.117909 0 0 1 -5.117909,-5.117909 5.117909,5.117909 0 0 1 5.117909,-5.117909 5.117909,5.117909 0 0 1 5.117909,5.117909 z" />
    <g
       aria-label="N"
       id="text6134"
       style="font-size:22.5778px;line-height:1.25;font-family:Futura;-inkscape-font-specification:Futura;letter-spacing:0px;word-spacing:0px;stroke-width:0.264583">
      <path
         d="m 58.051696,21.461475 v -1.196623 h 0.948268 q 0.474133,0 0.8128,-0.248356 0.338667,-0.248356 0.338667,-1.219201 V 7.9147949 q 0,-0.903112 -0.361244,-1.12889 Q 59.45152,6.5375491 58.999964,6.5375491 H 58.051696 V 5.3409256 h 5.012272 L 71.033931,16.607248 V 7.9147949 q 0,-0.903112 -0.361244,-1.12889 Q 70.33402,6.5375491 69.882464,6.5375491 H 68.934196 V 5.3409256 h 5.892806 v 1.1966235 h -0.948268 q -0.474134,0 -0.812801,0.2483558 -0.338667,0.2483558 -0.338667,1.2192012 V 21.461475 H 70.650109 L 61.844766,9.0211072 v 9.7761878 q 0,0.970845 0.338667,1.219201 0.338667,0.248356 0.812801,0.248356 h 0.948268 v 1.196623 z"
         style="font-weight:bold;font-family:serif;-inkscape-font-specification:'serif Bold'"
         id="path343" />
    </g>
    <g
       aria-label="S"
       transform="scale(1,-1)"
       id="text6134-4"
       style="font-size:22.5778px;line-height:1.25;font-family:Futura;-inkscape-font-specification:Futura;letter-spacing:0px;word-spacing:0px;stroke-width:0.264583">
      <path
         d="m 65.999079,-110.83018 q -2.009424,0 -3.18347,-0.47414 -1.151467,-0.49671 -1.625601,-1.2192 -0.474134,-0.74507 -0.474134,-1.46756 0,-0.76764 0.361245,-1.2192 0.361245,-0.47413 0.948267,-0.67733 0.587023,-0.2032 1.241779,-0.2032 0,1.91911 0.857957,2.91254 0.880534,0.99342 2.235202,0.99342 1.33209,0 2.05458,-0.69991 0.745067,-0.69992 0.745067,-1.73849 0,-1.15147 -0.948267,-1.85138 -0.92569,-0.69992 -2.822225,-1.46756 -1.580446,-0.65476 -2.506136,-1.35467 -0.92569,-0.72249 -1.33209,-1.58044 -0.383823,-0.88054 -0.383823,-1.98685 0,-1.37725 0.72249,-2.39325 0.722489,-1.016 1.964268,-1.58044 1.264357,-0.56445 2.844803,-0.56445 2.483558,0 3.635026,0.76765 1.174046,0.74506 1.174046,1.85138 0,0.79022 -0.699912,1.33209 -0.677334,0.54186 -2.077158,0.54186 0,-0.63218 -0.248356,-1.35467 -0.225778,-0.72248 -0.745067,-1.24177 -0.519289,-0.51929 -1.399824,-0.51929 -0.903112,0 -1.580446,0.54186 -0.654756,0.51929 -0.654756,1.53529 0,0.63218 0.293511,1.17405 0.293512,0.54187 1.106313,1.08373 0.8128,0.51929 2.325513,1.12889 2.325514,0.94827 3.318937,2.03201 0.993423,1.08373 0.993423,2.75449 0,1.44498 -0.767645,2.57387 -0.745068,1.10631 -2.122313,1.73849 -1.377246,0.63218 -3.251204,0.63218 z"
         style="font-weight:bold;font-family:serif;-inkscape-font-specification:'serif Bold'"
         id="path340" />
    </g>
    <g
       aria-label="E"
       transform="rotate(90.009744)"
       id="text6134-9"
       style="font-size:22.5778px;line-height:1.25;font-family:Futura;-inkscape-font-specification:Futura;letter-spacing:0px;word-spacing:0px;stroke-width:0.264583">
      <path
         d="m 59.769961,-110.84587 v -1.19662 h 0.948268 q 0.474134,0 0.812801,-0.22578 0.338667,-0.22578 0.338667,-1.12889 v -10.90508 q 0,-0.97085 -0.338667,-1.2192 -0.316089,-0.24836 -0.812801,-0.24836 h -0.948268 v -1.19662 h 12.53068 l 0.09031,4.15431 h -1.580446 l -0.112889,-1.06115 q -0.09031,-0.83538 -0.428978,-1.26436 -0.316089,-0.45155 -1.016001,-0.45155 h -3.793071 v 5.64445 h 5.350939 v 1.35466 h -5.350939 v 6.36694 h 4.51556 q 0.677334,0 0.993424,-0.47413 0.338667,-0.49671 0.451556,-1.24178 l 0.180622,-1.06116 h 1.557868 l -0.158044,4.15432 z"
         style="font-weight:bold;font-family:serif;-inkscape-font-specification:'serif Bold'"
         id="path337" />
    </g>
    <g
       aria-label="W"
       transform="rotate(-89.725796)"
       id="text6134-6"
       style="font-size:22.5778px;line-height:1.25;font-family:Futura;-inkscape-font-specification:Futura;letter-spacing:0px;word-spacing:0px;stroke-width:0.264583">
      <path
         d="m -76.003604,8.1088559 q -0.2032,-0.7224896 -0.587022,-0.9482676 -0.361245,-0.2483558 -1.016001,-0.2483558 h -0.293512 V 5.715609 h 7.540986 v 1.1966235 h -0.51929 q -1.354668,0 -1.354668,1.0837344 0,0.1806224 0.06773,0.5418672 0.06773,0.3612448 0.158044,0.677334 l 1.512713,5.2154719 q 0.180622,0.564445 0.361245,1.264357 0.180622,0.677334 0.316089,1.354668 0.158044,0.654756 0.2032,1.151468 0.158045,-0.72249 0.338667,-1.354668 0.180622,-0.654756 0.383823,-1.309513 l 2.980269,-9.6632984 h 1.64818 l 3.115736,8.6247204 q 0.383823,1.061156 0.677334,2.122313 0.31609,1.038579 0.428979,1.625601 0.180622,-0.8128 0.4064,-1.94169 0.225778,-1.151468 0.496712,-2.235203 l 1.196623,-4.8768047 q 0.06773,-0.2709336 0.135467,-0.6547562 0.06773,-0.3838226 0.06773,-0.564445 0,-0.5870228 -0.361245,-0.8128008 -0.338667,-0.2483558 -1.083734,-0.2483558 h -0.519289 V 5.715609 h 5.892806 v 1.1966235 h -0.428979 q -0.654756,0 -1.038579,0.3160892 -0.361244,0.3160892 -0.677334,1.4449792 l -3.499559,13.1628581 h -2.573869 l -3.79307,-10.588989 -3.251204,10.588989 h -2.799647 z"
         style="font-weight:bold;font-family:serif;-inkscape-font-specification:'serif Bold'"
         id="path334" />
    </g>
    <g
       transform="rotate(-89.725796)"
       id="text6134-6-4"
       style="font-size:22.5778px;line-height:1.25;font-family:Futura;-inkscape-font-specification:Futura;letter-spacing:0px;word-spacing:0px;stroke-width:0.264583" />
    <path
       id="path14269"
       style="fill:none;stroke-width:0.264999"
       d="M 112.82869,66.145828 A 46.682854,46.682854 0 0 1 66.145836,112.82868 46.682854,46.682854 0 0 1 19.462982,66.145828 46.682854,46.682854 0 0 1 66.145836,19.462975 46.682854,46.682854 0 0 1 112.82869,66.145828 Z" />
    <g
       aria-label="Navigate"
       id="text17712"
       style="font-size:16.9333px;line-height:1.25;font-family:Futura;-inkscape-font-specification:Futura;letter-spacing:0px;word-spacing:0px;stroke-width:0.264583">
      <path
         d="m 27.131492,154.08488 0.186266,-0.89746 h 0.220133 q 0.541866,0 0.982132,-0.16933 0.440265,-0.18627 0.575732,-0.84667 l 1.727196,-8.12798 q 0.1016,-0.4572 0.1016,-0.57573 0,-0.37254 -0.338666,-0.47414 -0.338666,-0.1016 -0.880531,-0.1016 h -0.220133 l 0.186266,-0.89746 h 3.759193 l 4.131725,8.68678 1.422397,-6.68865 q 0.03387,-0.18627 0.0508,-0.32173 0.03387,-0.13547 0.03387,-0.2032 0,-0.37254 -0.3556,-0.47414 -0.338666,-0.1016 -0.880531,-0.1016 h -0.0508 l 0.186266,-0.89746 h 4.267192 l -0.186267,0.89746 h -0.220133 q -0.524932,0 -0.982131,0.18627 -0.440266,0.16933 -0.575732,0.82973 l -2.150529,10.17691 H 36.56334 l -4.588924,-9.58424 -1.59173,7.58612 q -0.03387,0.18626 -0.06773,0.32173 -0.01693,0.13546 -0.01693,0.2032 0,0.37253 0.355599,0.47413 0.3556,0.1016 0.880532,0.1016 h 0.0508 l -0.186266,0.89746 z"
         style="font-style:italic;font-weight:bold;font-family:serif;-inkscape-font-specification:'serif Bold Italic'"
         id="path315" />
      <path
         d="m 43.963194,154.25422 q -0.795865,0 -1.337731,-0.4064 -0.541865,-0.4064 -0.812798,-1.10067 -0.270933,-0.71119 -0.270933,-1.59173 0,-0.79586 0.220133,-1.65946 0.220133,-0.88053 0.660399,-1.69333 0.440265,-0.82973 1.083731,-1.49013 0.643465,-0.67733 1.473197,-1.0668 0.846665,-0.4064 1.879596,-0.4064 0.660399,0 1.337731,0.18627 0.677332,0.18627 1.049864,0.4064 l 0.897465,-0.4064 h 0.897465 l -1.117598,5.28319 q -0.03387,0.18627 -0.118533,0.52493 -0.06773,0.33867 -0.118533,0.69427 -0.0508,0.33866 -0.0508,0.5588 0,0.42333 0.1524,0.62653 0.169333,0.2032 0.440266,0.2032 0.237066,0 0.457199,-0.1016 0.220133,-0.1016 0.491066,-0.254 l 0.372532,0.67733 q -0.423332,0.32173 -1.100664,0.67733 -0.660399,0.33867 -1.574797,0.33867 -0.745065,0 -1.202264,-0.33867 -0.4572,-0.3556 -0.4572,-1.016 0,-0.49106 0.118534,-1.10066 h -0.118534 q -0.406399,0.77893 -0.846665,1.33773 -0.440265,0.54187 -1.015998,0.82973 -0.558798,0.28787 -1.38853,0.28787 z m 1.066798,-1.35467 q 0.372532,0 0.761998,-0.3048 0.389466,-0.32173 0.745065,-0.84666 0.3556,-0.54187 0.626533,-1.20227 0.287866,-0.66039 0.423332,-1.33773 l 0.592666,-2.81092 q -0.169333,-0.23707 -0.4572,-0.3556 -0.287866,-0.11854 -0.626532,-0.11854 -0.592665,0 -1.066798,0.3556 -0.474132,0.3556 -0.829731,0.94827 -0.3556,0.59266 -0.609599,1.28693 -0.237066,0.69426 -0.355599,1.40546 -0.118533,0.69427 -0.118533,1.25307 0,0.98213 0.253999,1.35466 0.270933,0.37253 0.660399,0.37253 z"
         style="font-style:italic;font-weight:bold;font-family:serif;-inkscape-font-specification:'serif Bold Italic'"
         id="path317" />
      <path
         d="m 53.733725,146.80357 q -0.08467,-0.54187 -0.389466,-0.7112 -0.287866,-0.18627 -0.778932,-0.18627 h -0.169333 l 0.203199,-0.89746 h 3.318927 l 0.778932,5.01225 q 0.135466,0.84667 0.186266,1.524 0.0508,0.67733 0.08467,1.10066 h 0.0508 q 0.778932,-0.79586 1.43933,-1.72719 0.660399,-0.93133 1.066798,-1.8288 0.423333,-0.9144 0.423333,-1.60866 0,-0.57573 -0.321733,-0.82973 -0.321733,-0.27094 -0.795865,-0.27094 0,-0.69426 0.372532,-1.10066 0.389466,-0.42333 1.032932,-0.42333 0.541865,0 0.897465,0.37253 0.372532,0.3556 0.372532,1.20226 0,0.79587 -0.304799,1.65947 -0.287866,0.86359 -0.778932,1.72719 -0.491066,0.8636 -1.066798,1.65947 -0.575732,0.79586 -1.151464,1.47319 -0.575732,0.6604 -1.032932,1.1176 l -2.235195,0.16933 z"
         style="font-style:italic;font-weight:bold;font-family:serif;-inkscape-font-specification:'serif Bold Italic'"
         id="path319" />
      <path
         d="m 66.010373,143.48464 q -0.558798,0 -0.948264,-0.254 -0.372533,-0.27093 -0.372533,-0.79587 0,-0.74506 0.474132,-1.06679 0.474133,-0.32174 1.100665,-0.32174 0.541866,0 0.948265,0.254 0.406399,0.23707 0.406399,0.8128 0,0.69427 -0.507999,1.03293 -0.491066,0.33867 -1.100665,0.33867 z m -0.829731,10.76958 q -0.965198,0 -1.490131,-0.4572 -0.524932,-0.47413 -0.524932,-1.28693 0,-0.3556 0.06773,-0.8636 0.06773,-0.508 0.2032,-1.15146 l 0.660399,-3.1496 q 0.0508,-0.22013 0.08467,-0.44026 0.03387,-0.22014 0.03387,-0.28787 0,-0.4572 -0.2032,-0.57573 -0.2032,-0.13547 -0.694265,-0.13547 h -0.3048 l 0.169333,-0.89746 h 3.996259 l -1.168398,5.50332 q -0.101599,0.4572 -0.169333,0.8636 -0.06773,0.4064 -0.06773,0.762 0,0.76199 0.592666,0.76199 0.270933,0 0.491065,-0.1016 0.220133,-0.1016 0.507999,-0.28786 l 0.4064,0.57573 q -0.4064,0.42333 -1.032932,0.79587 -0.626532,0.37253 -1.557863,0.37253 z"
         style="font-style:italic;font-weight:bold;font-family:serif;-inkscape-font-specification:'serif Bold Italic'"
         id="path321" />
      <path
         d="m 70.921031,158.14888 q -2.048929,0 -2.946394,-0.59267 -0.914399,-0.57573 -0.914399,-1.55786 0,-0.6096 0.389466,-1.04987 0.389466,-0.44026 0.999065,-0.72813 0.626532,-0.27093 1.320797,-0.38946 -0.321732,-0.18627 -0.592665,-0.5588 -0.270933,-0.38947 -0.270933,-0.82974 0,-0.54186 0.440266,-0.94826 0.440266,-0.42333 1.388531,-0.94827 -0.558799,-0.27093 -0.880532,-0.77893 -0.304799,-0.52493 -0.304799,-1.25306 0,-0.59267 0.253999,-1.23613 0.270933,-0.64347 0.795865,-1.18533 0.524932,-0.5588 1.320798,-0.89747 0.795865,-0.3556 1.862663,-0.3556 0.558798,0 1.049864,0.13547 0.491066,0.11853 0.863598,0.4064 0.389466,-0.49107 0.863599,-0.8128 0.474132,-0.33867 1.100664,-0.33867 0.524933,0 0.761999,0.254 0.237066,0.254 0.237066,0.64347 0,0.42333 -0.237066,0.8128 -0.220133,0.38946 -0.846665,0.38946 0,-0.72813 -0.592666,-0.72813 -0.220133,0 -0.423332,0.0847 -0.186267,0.0847 -0.3556,0.22013 0.186267,0.23707 0.3048,0.6096 0.118533,0.3556 0.118533,0.74506 0,0.5588 -0.237066,1.18534 -0.237066,0.62653 -0.745065,1.18533 -0.491066,0.54186 -1.269998,0.89746 -0.761998,0.3556 -1.828796,0.3556 -0.1524,0 -0.440266,-0.0169 -0.287866,-0.0169 -0.423333,-0.0339 -0.389466,0.16933 -0.660398,0.4064 -0.270933,0.22013 -0.270933,0.49107 0,0.27093 0.253999,0.37253 0.270933,0.1016 0.660399,0.13546 l 1.89653,0.18627 q 1.253064,0.11853 1.930396,0.67733 0.694265,0.54187 0.694265,1.6256 0,1.54093 -1.371597,2.47226 -1.371597,0.94827 -3.894659,0.94827 z m 1.676397,-8.29732 q 0.457199,0 0.778931,-0.28787 0.338666,-0.3048 0.558799,-0.74506 0.220133,-0.4572 0.321733,-0.93133 0.118533,-0.47414 0.118533,-0.84667 0,-1.15146 -0.914398,-1.15146 -0.440266,0 -0.778932,0.28786 -0.321733,0.28787 -0.558799,0.72814 -0.220133,0.44026 -0.338666,0.91439 -0.1016,0.47414 -0.1016,0.8636 0,0.62653 0.237067,0.89747 0.253999,0.27093 0.677332,0.27093 z m -1.422398,7.28132 q 1.490131,0 2.150529,-0.49107 0.677332,-0.49106 0.677332,-1.11759 0,-0.49107 -0.372532,-0.74507 -0.355599,-0.254 -1.236131,-0.32173 l -1.507064,-0.13547 q -0.728132,0.1016 -1.269997,0.52493 -0.541866,0.44027 -0.541866,1.03293 0,0.52494 0.423333,0.88054 0.440265,0.37253 1.676396,0.37253 z"
         style="font-style:italic;font-weight:bold;font-family:serif;-inkscape-font-specification:'serif Bold Italic'"
         id="path323" />
      <path
         d="m 80.96248,154.25422 q -0.795866,0 -1.337731,-0.4064 -0.541866,-0.4064 -0.812799,-1.10067 -0.270932,-0.71119 -0.270932,-1.59173 0,-0.79586 0.220133,-1.65946 0.220132,-0.88053 0.660398,-1.69333 0.440266,-0.82973 1.083731,-1.49013 0.643466,-0.67733 1.473198,-1.0668 0.846665,-0.4064 1.879596,-0.4064 0.660399,0 1.337731,0.18627 0.677332,0.18627 1.049864,0.4064 l 0.897465,-0.4064 h 0.897465 l -1.117598,5.28319 q -0.03387,0.18627 -0.118533,0.52493 -0.06773,0.33867 -0.118533,0.69427 -0.0508,0.33866 -0.0508,0.5588 0,0.42333 0.1524,0.62653 0.169333,0.2032 0.440266,0.2032 0.237066,0 0.457199,-0.1016 0.220133,-0.1016 0.491065,-0.254 l 0.372533,0.67733 q -0.423333,0.32173 -1.100665,0.67733 -0.660398,0.33867 -1.574796,0.33867 -0.745066,0 -1.202265,-0.33867 -0.457199,-0.3556 -0.457199,-1.016 0,-0.49106 0.118533,-1.10066 h -0.118533 q -0.406399,0.77893 -0.846665,1.33773 -0.440266,0.54187 -1.015998,0.82973 -0.558799,0.28787 -1.38853,0.28787 z m 1.066797,-1.35467 q 0.372533,0 0.761999,-0.3048 0.389466,-0.32173 0.745065,-0.84666 0.355599,-0.54187 0.626532,-1.20227 0.287866,-0.66039 0.423333,-1.33773 l 0.592665,-2.81092 q -0.169333,-0.23707 -0.457199,-0.3556 -0.287866,-0.11854 -0.626532,-0.11854 -0.592665,0 -1.066798,0.3556 -0.474132,0.3556 -0.829732,0.94827 -0.355599,0.59266 -0.609598,1.28693 -0.237067,0.69426 -0.3556,1.40546 -0.118533,0.69427 -0.118533,1.25307 0,0.98213 0.254,1.35466 0.270933,0.37253 0.660398,0.37253 z"
         style="font-style:italic;font-weight:bold;font-family:serif;-inkscape-font-specification:'serif Bold Italic'"
         id="path325" />
      <path
         d="m 92.460204,154.25422 q -0.931332,0 -1.574797,-0.49107 -0.626532,-0.49106 -0.626532,-1.49013 0,-0.3048 0.0508,-0.69426 0.0508,-0.4064 0.118533,-0.72814 l 1.015998,-4.69052 h -1.303864 l 0.186266,-0.8636 q 0.728132,0 1.676397,-0.52493 0.948265,-0.54187 1.74413,-1.84573 h 0.982131 l -0.440266,2.0828 h 2.04893 l -0.237067,1.15146 h -2.065862 l -1.015998,4.63972 q -0.08467,0.37254 -0.135467,0.67734 -0.03387,0.3048 -0.03387,0.54186 0,0.42333 0.237066,0.64347 0.237066,0.2032 0.609599,0.2032 0.389466,0 0.711198,-0.13547 0.338666,-0.13547 0.609599,-0.3048 l 0.389466,0.64347 q -0.558799,0.47413 -1.269997,0.82973 -0.694266,0.3556 -1.676397,0.3556 z"
         style="font-style:italic;font-weight:bold;font-family:serif;-inkscape-font-specification:'serif Bold Italic'"
         id="path327" />
      <path
         d="m 100.63898,154.25422 q -1.032929,0 -1.896528,-0.37253 -0.846665,-0.38947 -1.371597,-1.1684 -0.507999,-0.77893 -0.507999,-1.96427 0,-0.94826 0.372533,-1.98119 0.372532,-1.03293 1.100664,-1.91346 0.728132,-0.89747 1.794927,-1.45627 1.0668,-0.5588 2.47226,-0.5588 1.20227,0 1.8796,0.52494 0.67733,0.52493 0.67733,1.47319 0,0.9144 -0.6604,1.69333 -0.64346,0.77893 -1.79493,1.27 -1.13453,0.47413 -2.59079,0.47413 h -0.626533 q -0.01693,0.16934 -0.03387,0.33867 0,0.16933 0,0.3048 0,0.98213 0.457199,1.52399 0.4572,0.52494 1.38853,0.52494 0.82973,0 1.4732,-0.42334 0.64346,-0.44026 0.99906,-0.94826 0.22014,0.27093 0.22014,0.72813 0,0.4064 -0.3556,0.8636 -0.3556,0.44027 -1.10067,0.762 -0.72813,0.3048 -1.89653,0.3048 z m -0.88053,-4.94453 q 0.84667,0 1.50706,-0.28786 0.67734,-0.3048 1.0668,-0.82973 0.38947,-0.52494 0.38947,-1.23613 0,-0.52494 -0.22014,-0.8128 -0.22013,-0.28787 -0.60959,-0.28787 -0.54187,0 -1.016,0.52493 -0.47413,0.52494 -0.8128,1.3208 -0.321733,0.79587 -0.457199,1.60866 z"
         style="font-style:italic;font-weight:bold;font-family:serif;-inkscape-font-specification:'serif Bold Italic'"
         id="path329" />
    </g>
    <rect
       style="fill:#000000;fill-opacity:1;stroke:none;stroke-width:0.661593;stroke-linecap:round;stroke-linejoin:round;stroke-dasharray:none;stroke-opacity:1"
       id="rect930"
       width="10.123783"
       height="0.6689992"
       x="-45.099701"
       y="93.209824"
       transform="rotate(-45.000018)" />
    <rect
       style="fill:#000000;fill-opacity:1;stroke:none;stroke-width:0.661593;stroke-linecap:round;stroke-linejoin:round;stroke-dasharray:none;stroke-opacity:1"
       id="rect930-7"
       width="10.123783"
       height="0.6689992"
       x="34.615772"
       y="93.209846"
       transform="rotate(-45.000018)" />
    <rect
       style="fill:#000000;fill-opacity:1;stroke:none;stroke-width:0.661593;stroke-linecap:round;stroke-linejoin:round;stroke-dasharray:none;stroke-opacity:1"
       id="rect930-3"
       width="10.123783"
       height="0.6689992"
       x="-138.6387"
       y="-0.33454391"
       transform="matrix(-0.70710656,-0.707107,-0.707107,0.70710656,0,0)" />
    <rect
       style="fill:#000000;fill-opacity:1;stroke:none;stroke-width:0.661593;stroke-linecap:round;stroke-linejoin:round;stroke-dasharray:none;stroke-opacity:1"
       id="rect930-3-6"
       width="10.123783"
       height="0.6689992"
       x="-58.928532"
       y="-0.3345162"
       transform="matrix(-0.70710656,-0.707107,-0.707107,0.70710656,0,0)" />
  </g>
</svg>
